HIERARCHY
ROOT Spine
{
    OFFSET 0.0 0.0 -0.0
    CHANNELS 6 Xposition Yposition Zposition Zrotation Xrotation Yrotation
    JOINT ShoulderCenter
    {
        OFFSET 0.0 33.27177047729492 0.0
        CHANNELS 3 Zrotation Xrotation Yrotation
        JOINT LeftShoulder
        {
            OFFSET 17.754846572875977 0.0 0.0
            CHANNELS 3 Zrotation Xrotation Yrotation
            JOINT LeftElbow
            {
                OFFSET 29.747600555419922 0.0 0.0
                CHANNELS 3 Zrotation Xrotation Yrotation
                JOINT LeftHand
                {
                    OFFSET 32.90536117553711 0.0 0.0
                    CHANNELS 3 Zrotation Xrotation Yrotation
                    End Site
                    {
                        OFFSET 13.16214370727539 0.0 0.0
                    }
                }
            }
        }
        JOINT RightShoulder
        {
            OFFSET -17.754846572875977 0.0 0.0
            CHANNELS 3 Zrotation Xrotation Yrotation
            JOINT RightElbow
            {
                OFFSET -29.747600555419922 0.0 0.0
                CHANNELS 3 Zrotation Xrotation Yrotation
                JOINT RightHand
                {
                    OFFSET -32.90536117553711 0.0 0.0
                    CHANNELS 3 Zrotation Xrotation Yrotation
                    End Site
                    {
                        OFFSET -13.16214370727539 0.0 0.0
                    }
                }
            }
        }
        End Site
        {
            OFFSET 0.0 13.308709144592285 0.0
        }
    }
    JOINT LeftHip
    {
        OFFSET 15.454918917652515 -15.454918917652515 0.0
        CHANNELS 3 Zrotation Xrotation Yrotation
        JOINT LeftKnee
        {
            OFFSET 0.0 -42.080963134765625 0.0
            CHANNELS 3 Zrotation Xrotation Yrotation
            JOINT LeftFoot
            {
                OFFSET 0.0 -45.66726303100586 0.0
                CHANNELS 3 Zrotation Xrotation Yrotation
                End Site
                {
                    OFFSET 0.0 0.0 18.266904830932617
                }
            }
        }
    }
    JOINT RightHip
    {
        OFFSET -15.454918917652515 -15.454918917652515 0.0
        CHANNELS 3 Zrotation Xrotation Yrotation
        JOINT RightKnee
        {
            OFFSET 0.0 -42.080963134765625 0.0
            CHANNELS 3 Zrotation Xrotation Yrotation
            JOINT RightFoot
            {
                OFFSET 0.0 -45.66726303100586 0.0
                CHANNELS 3 Zrotation Xrotation Yrotation
                End Site
                {
                    OFFSET 0.0 0.0 18.266904830932617
                }
            }
        }
    }
}
MOTION
Frames: 4
Frame Time: 0.03333333333333333
52.10000228881836 -11.59999942779541 -60.70000076293945 18.274910579366146 46.90499993365141 7.54675401040728 9.559151697992352e-07 1.128287275176422e-06 16.236474084398274 128.47459959307938 -39.74376559187328 -117.3919604631013 3.1678566847783316e-06 -1.7411761501910928e-06 70.28972127935687 3.1805546814635168e-15 0.0 0.0 -88.75457035292912 15.37773753176906 98.17944337107882 6.698718538310147e-07 3.6198719992965744e-07 -103.77040366316925 -6.3611093629270335e-15 -3.1805546814635164e-15 -7.951386703658792e-15 25.5316147659296 -56.190314420412726 113.68756447108926 45.469225311858054 16.36076498404194 -99.79571734015032 1.5902773407317584e-15 3.1805546814635168e-15 7.951386703658792e-16 -117.14037415295056 -50.578664778404836 172.24005312262034 -46.97405404808963 -10.547138693266287 -18.94076539174175 -1.5902773407317584e-15 -1.5902773407317584e-15 -4.373262687012335e-15
52.29999923706055 -12.199999809265137 -61.19999694824219 15.564576626055102 46.78947587162004 8.424555071260082 6.967678790586139e-07 -1.0150758498761323e-06 15.028916943076842 126.5626459865003 -37.82392185464616 -118.984473750705 -4.614643416560463e-07 4.569783746891255e-06 72.35743035175892 1.5902773407317582e-15 0.0 0.0 -99.36645109141978 15.14858005429245 100.78384068546927 2.0303489851351606e-06 5.119632800495188e-07 -106.72674968329719 0.0 0.0 3.1805546814635164e-15 32.70542911283275 -56.32515213361349 122.7431016261571 48.880822932772155 14.577766150528792 -107.96603099515949 0.0 -3.1805546814635168e-15 0.0 -116.90994370458607 -51.617239888407134 171.92762004884645 -47.53463203757231 -9.775163278043273 -18.238999045959833 -3.975693351829397e-15 1.5902773407317588e-15 2.3854160110976384e-15
52.499996185302734 -12.800000190734863 -61.69999694824219 11.309923480024382 46.286664542874476 10.58337927260692 1.553355648121445e-07 -2.5565642497579298e-06 13.327625365084645 125.00581215554952 -36.02709739192955 -119.46042027731005 3.606952175051774e-06 -4.330895273810876e-06 72.4342024633051 3.1805546814635168e-15 -6.3611093629270335e-15 1.7655625192200634e-31 -105.32903609804691 14.388894745131447 102.11527092362469 2.3647168254956303e-06 1.06665836764875e-06 -107.2948436163058 -6.3611093629270335e-15 4.4139062980501586e-32 -7.951386703658792e-16 38.962397992087766 -56.25833743692651 128.04605927773886 51.151702415760546 13.168711420675319 -113.57743423476559 -1.5902773407317588e-15 0.0 0.0 -115.6878263180841 -52.41257070916286 171.4087944762429 -48.40360845068443 -8.9969167386318 -17.268430924246587 -1.5902773407317584e-15 -1.5902773407317584e-15 -5.168401357378215e-15
52.999996185302734 -13.40000057220459 -62.400001525878906 7.709320931120841 45.84409727560016 13.025338302596797 1.328942249431379e-06 7.213525482335741e-06 12.142511865363895 125.00368936473491 -35.128038938669995 -117.79994005381714 2.5315121678035997e-06 -1.7965343065366248e-06 72.29895358346683 -3.531125038440127e-31 -6.3611093629270335e-15 -6.3611093629270335e-15 -107.73821643617802 14.529105179561883 103.03208090463157 2.913138613510868e-06 1.0663662014513728e-06 -107.9462169123833 6.3611093629270335e-15 -1.3241718894150476e-31 -2.3854160110976376e-15 44.06635544737382 -56.77347054652118 133.19895883885542 53.202624896900424 11.825573224339816 -116.5949671446585 -6.896728590703373e-34 9.939233379573489e-17 7.951386703658791e-16 -115.1844028382211 -52.29241942291086 171.19182698197034 -49.59353323407421 -7.779306030571335 -15.660429212163372 3.1805546814635168e-15 -1.5902773407317584e-15 -2.3854160110976376e-15
